# xmcd
#
# Track frame offsets:
#	150
#	12699
#	28914
#	40334
#	56745
#	72396
#	88252
#	103883
#	119525
#	137117
#	150449
#	163807
#	182677
#	202272
#	222067
#	239618
#	255961
#	273381
#	290419
#	305411
#
# Disc length: 4308 seconds
#
# Revision: 5
# Processed by: cddbd v1.5.2PL0 Copyright (c) Steve Scherf et al.
# Submitted via: audiograbber 1.83.01
#
DISCID=3710d214
DTITLE=Various Artist - New Country Collection Vol.02 [CD3)
DYEAR=2008
DGENRE=Country
TTITLE0=Aaron Tippin - There Ain't Nothin' Wrong With The Radio
TTITLE1=Brad Paisley and Chely Wright - Part Two
TTITLE2=Danni Leigh - I Can Help You Find Your Heart
TTITLE3=John Arthur Martinez - Boys With Guitars
TTITLE4=Pam Tillis - Band In The Window
TTITLE5=Steve Holy - Good Morning Beautiful
TTITLE6=Sherrie Austin - Innocent Man
TTITLE7=Phil Vassar - That's When I Love You
TTITLE8=Sarah Johns - The One In The Middle
TTITLE9=Billy Dean - Innocent Bystander
TTITLE10=Rodney Atkins - About The South
TTITLE11=Martina McBride - Concrete Angel
TTITLE12=Montgomery Gentry - She Couldn't Change Me
TTITLE13=Miranda Lambert - Greyhound Bound For Nowhere
TTITLE14=Tim McGraw - When The Stars Go Blue
TTITLE15=Sara Evans and Vince Gill - No Place That Far
TTITLE16=Kersh David - Another You
TTITLE17=Dolly Parton - Great Balls Of Fire
TTITLE18=Chris Young - Drinkin' Me Lonely
TTITLE19=Tracy Lawrence - Til I Was A Daddy Too
EXTD=
EXTT0=
EXTT1=
EXTT2=
EXTT3=
EXTT4=
EXTT5=
EXTT6=
EXTT7=
EXTT8=
EXTT9=
EXTT10=
EXTT11=
EXTT12=
EXTT13=
EXTT14=
EXTT15=
EXTT16=
EXTT17=
EXTT18=
EXTT19=
PLAYORDER=
